<svg xmlns="http://www.w3.org/2000/svg" width="420" height="420" viewBox="0 0 420 420"><defs>
<linearGradient id="fabric" x1="0" y1="0" x2="1" y2="1"><stop offset="0" stop-color="#e7dfd2"/><stop offset="0.55" stop-color="#c8b9a5"/><stop offset="1" stop-color="#9f8d76"/></linearGradient>
<linearGradient id="fabric2" x1="0" y1="0" x2="1" y2="1"><stop offset="0" stop-color="#aab79f"/><stop offset="0.55" stop-color="#7e9275"/><stop offset="1" stop-color="#586c50"/></linearGradient>
<linearGradient id="wood" x1="0" y1="0" x2="1" y2="1"><stop offset="0" stop-color="#a86f42"/><stop offset="0.5" stop-color="#80502f"/><stop offset="1" stop-color="#5b351f"/></linearGradient>
<linearGradient id="woodLight" x1="0" y1="0" x2="1" y2="1"><stop offset="0" stop-color="#d8b083"/><stop offset="0.6" stop-color="#b57e4f"/><stop offset="1" stop-color="#855735"/></linearGradient>
<linearGradient id="metal" x1="0" y1="0" x2="1" y2="1"><stop offset="0" stop-color="#f4f6f7"/><stop offset="0.4" stop-color="#b9c0c7"/><stop offset="0.75" stop-color="#6f7781"/><stop offset="1" stop-color="#dfe4e8"/></linearGradient>
<linearGradient id="dark" x1="0" y1="0" x2="1" y2="1"><stop offset="0" stop-color="#454d55"/><stop offset="0.55" stop-color="#252b31"/><stop offset="1" stop-color="#11161b"/></linearGradient>
<linearGradient id="marble" x1="0" y1="0" x2="1" y2="1"><stop offset="0" stop-color="#fafafa"/><stop offset="0.55" stop-color="#d9d9d9"/><stop offset="1" stop-color="#b8b8b8"/></linearGradient>
<linearGradient id="glass" x1="0" y1="0" x2="1" y2="1"><stop offset="0" stop-color="#dff7ff" stop-opacity=".5"/><stop offset="1" stop-color="#7ac5dc" stop-opacity=".18"/></linearGradient>
<radialGradient id="green" cx="45%" cy="35%"><stop offset="0" stop-color="#7aad62"/><stop offset=".65" stop-color="#3d7d3d"/><stop offset="1" stop-color="#1f4e2c"/></radialGradient>
<filter id="shadow" x="-30%" y="-30%" width="160%" height="180%"><feDropShadow dx="0" dy="10" stdDeviation="9" flood-color="#000" flood-opacity=".22"/></filter>
<filter id="soft" x="-30%" y="-30%" width="160%" height="160%"><feGaussianBlur stdDeviation="4"/></filter>
</defs><rect x="178.8" y="153.8" width="62.400000000000006" height="62.400000000000006" rx="18.2" fill="url(#fabric2)" stroke="#4e5a48" stroke-width="1.5" /><line x1="184.0" y1="161.6" x2="236.0" y2="161.6" stroke="#40513d" stroke-width="3" /><ellipse cx="210" cy="285" rx="65" ry="25" fill="none" stroke="#252a2e" stroke-width="4" /><line x1="210" y1="285" x2="290.0" y2="285.0" stroke="#343a40" stroke-width="4" /><line x1="210" y1="285" x2="234.72135954999578" y2="327.7975432332819" stroke="#343a40" stroke-width="4" /><line x1="210" y1="285" x2="145.27864045000422" y2="311.4503363531613" stroke="#343a40" stroke-width="4" /><line x1="210" y1="285" x2="145.2786404500042" y2="258.5496636468387" stroke="#343a40" stroke-width="4" /><line x1="210" y1="285" x2="234.72135954999578" y2="242.2024567667181" stroke="#343a40" stroke-width="4" /></svg>